<svg width="168" height="40" viewBox="0 0 168 40" fill="none" xmlns="http://www.w3.org/2000/svg">
<g filter="url(#filter0_i_413_11)">
<path d="M0 0H168V25C168 33.2843 161.284 40 153 40H0L0 0Z" fill="white"/>
<g filter="url(#filter1_i_413_11)">
<path d="M10.7447 16.0671C9.96248 16.0671 9.28965 15.9014 8.72621 15.57C8.16607 15.2352 7.7352 14.7712 7.43359 14.1779C7.1353 13.5846 6.98615 12.9019 6.98615 12.1296C6.98615 11.3474 7.13696 10.6613 7.43857 10.0714C7.74349 9.4781 8.17602 9.01574 8.73615 8.6843C9.29628 8.34955 9.96248 8.18217 10.7347 8.18217C11.4009 8.18217 11.9843 8.30315 12.4847 8.5451C12.9852 8.78705 13.3813 9.12678 13.6729 9.56428C13.9646 10.0018 14.1254 10.5155 14.1552 11.1055H12.1566C12.1003 10.7243 11.9511 10.4177 11.7092 10.1857C11.4705 9.9504 11.1573 9.83274 10.7695 9.83274C10.4414 9.83274 10.1547 9.92223 9.90945 10.1012C9.6675 10.2769 9.47857 10.5337 9.34268 10.8718C9.20679 11.2099 9.13885 11.6192 9.13885 12.0998C9.13885 12.587 9.20514 13.0013 9.33771 13.3427C9.4736 13.6841 9.66418 13.9442 9.90945 14.1232C10.1547 14.3022 10.4414 14.3917 10.7695 14.3917C11.0115 14.3917 11.2286 14.342 11.4208 14.2425C11.6164 14.1431 11.7771 13.9989 11.9031 13.81C12.0323 13.6178 12.1168 13.3874 12.1566 13.119H14.1552C14.122 13.7023 13.9629 14.216 13.6779 14.6602C13.3962 15.101 13.0067 15.4457 12.5096 15.6942C12.0124 15.9428 11.4241 16.0671 10.7447 16.0671ZM15.5112 15.918V8.2816H18.7676C19.7089 8.2816 20.4529 8.46058 20.9998 8.81854C21.5467 9.17649 21.8201 9.68525 21.8201 10.3448C21.8201 10.7591 21.666 11.1038 21.3578 11.3789C21.0495 11.654 20.622 11.8396 20.0751 11.9357C20.5325 11.9689 20.9219 12.0733 21.2434 12.2489C21.5682 12.4213 21.8152 12.645 21.9842 12.9201C22.1565 13.1952 22.2427 13.5001 22.2427 13.8349C22.2427 14.2691 22.1267 14.6419 21.8947 14.9535C21.666 15.265 21.3296 15.5037 20.8855 15.6694C20.4447 15.8351 19.9061 15.918 19.2697 15.918H15.5112ZM17.4849 14.332H19.2697C19.5647 14.332 19.795 14.2624 19.9608 14.1232C20.1298 13.9807 20.2143 13.7868 20.2143 13.5415C20.2143 13.2698 20.1298 13.056 19.9608 12.9002C19.795 12.7444 19.5647 12.6665 19.2697 12.6665H17.4849V14.332ZM17.4849 11.4237H18.8123C19.0244 11.4237 19.2051 11.3938 19.3542 11.3342C19.5067 11.2712 19.6227 11.1817 19.7022 11.0657C19.7851 10.9497 19.8265 10.8121 19.8265 10.6531C19.8265 10.4177 19.7321 10.2338 19.5431 10.1012C19.3542 9.96863 19.0957 9.90234 18.7676 9.90234H17.4849V11.4237ZM27.0577 16.0671C26.2722 16.0671 25.5961 15.908 25.0293 15.5898C24.4658 15.2683 24.0317 14.8143 23.7267 14.2276C23.4218 13.6377 23.2694 12.94 23.2694 12.1346C23.2694 11.3491 23.4218 10.6597 23.7267 10.0664C24.0317 9.47313 24.4609 9.01077 25.0144 8.67933C25.5712 8.34789 26.2241 8.18217 26.9732 8.18217C27.477 8.18217 27.946 8.26338 28.3801 8.42578C28.8176 8.58487 29.1988 8.82517 29.5236 9.14666C29.8517 9.46816 30.1069 9.87251 30.2892 10.3597C30.4715 10.8436 30.5627 11.4104 30.5627 12.06V12.6417H24.1145V11.3292H28.5691C28.5691 11.0243 28.5028 10.7541 28.3702 10.5188C28.2376 10.2835 28.0537 10.0995 27.8184 9.96697C27.5864 9.83108 27.3162 9.76314 27.008 9.76314C26.6865 9.76314 26.4015 9.83771 26.1529 9.98686C25.9076 10.1327 25.7154 10.3299 25.5762 10.5785C25.437 10.8237 25.3657 11.0972 25.3624 11.3988V12.6467C25.3624 13.0245 25.432 13.351 25.5712 13.6261C25.7137 13.9012 25.9142 14.1133 26.1728 14.2624C26.4313 14.4116 26.7379 14.4862 27.0925 14.4862C27.3278 14.4862 27.5433 14.453 27.7388 14.3867C27.9344 14.3204 28.1017 14.221 28.2409 14.0884C28.3801 13.9558 28.4862 13.7934 28.5591 13.6012L30.5179 13.7305C30.4185 14.2011 30.2147 14.6121 29.9064 14.9634C29.6015 15.3114 29.2071 15.5832 28.7232 15.7788C28.2426 15.971 27.6874 16.0671 27.0577 16.0671ZM31.3556 9.94709V8.2816H38.2761V9.94709H35.8152V15.918H33.7967V9.94709H31.3556ZM41.5835 13.1239L44.3327 8.2816H46.4208V15.918H44.4023V11.0607L41.663 15.918H39.56V8.2816H41.5835V13.1239ZM47.6712 15.918L47.6612 14.2376H47.9148C48.0938 14.2376 48.2479 14.1945 48.3771 14.1083C48.5097 14.0188 48.6191 13.8746 48.7053 13.6758C48.7914 13.4769 48.8594 13.2134 48.9091 12.8853C48.9588 12.5539 48.992 12.1462 49.0085 11.6623L49.1328 8.2816H54.9396V15.918H52.9212V9.94709H51.0369L50.9176 12.2788C50.8878 12.9184 50.8099 13.4686 50.6839 13.9293C50.5613 14.39 50.3906 14.7679 50.1719 15.0629C49.9531 15.3545 49.6896 15.57 49.3814 15.7092C49.0732 15.8484 48.7152 15.918 48.3075 15.918H47.6712ZM57.9089 10.6282H60.1909C61.2018 10.6282 61.9906 10.8701 62.5574 11.354C63.1241 11.8346 63.4075 12.4776 63.4075 13.283C63.4075 13.8067 63.2799 14.2674 63.0247 14.6651C62.7695 15.0595 62.4016 15.3678 61.921 15.5898C61.4404 15.8086 60.8637 15.918 60.1909 15.918H56.5815V8.2816H58.6049V14.2525H60.1909C60.5455 14.2525 60.8372 14.163 61.0659 13.984C61.2946 13.805 61.4106 13.5763 61.4139 13.2979C61.4106 13.003 61.2946 12.7627 61.0659 12.5771C60.8372 12.3881 60.5455 12.2937 60.1909 12.2937H57.9089V10.6282ZM70.1266 11.2546V12.9201H66.1394V11.2546H70.1266ZM66.8354 8.2816V15.918H64.812V8.2816H66.8354ZM71.454 8.2816V15.918H69.4455V8.2816H71.454ZM75.1206 13.1239L77.8699 8.2816H79.9579V15.918H77.9395V11.0607L75.2001 15.918H73.0971V8.2816H75.1206V13.1239ZM81.6557 15.918V8.2816H83.7736V11.2447H84.3702L86.4483 8.2816H88.9341L86.2346 12.07L88.964 15.918H86.4483L84.5641 13.2085H83.7736V15.918H81.6557ZM91.8823 13.1239L94.6316 8.2816H96.7196V15.918H94.7012V11.0607L91.9618 15.918H89.8588V8.2816H91.8823V13.1239ZM101.697 15.918V5.73615H105.714C106.487 5.73615 107.145 5.88364 107.688 6.17862C108.232 6.47029 108.646 6.8763 108.931 7.39666C109.219 7.91371 109.364 8.5103 109.364 9.18643C109.364 9.86257 109.218 10.4592 108.926 10.9762C108.634 11.4933 108.212 11.896 107.658 12.1843C107.108 12.4727 106.442 12.6168 105.66 12.6168H103.099V10.8917H105.312C105.726 10.8917 106.067 10.8204 106.336 10.6779C106.608 10.5321 106.81 10.3316 106.942 10.0763C107.078 9.81783 107.146 9.52119 107.146 9.18643C107.146 8.84837 107.078 8.55338 106.942 8.30149C106.81 8.04628 106.608 7.84908 106.336 7.70987C106.064 7.56735 105.719 7.49609 105.302 7.49609H103.85V15.918H101.697ZM110.762 15.918V5.73615H112.915V9.93714H117.285V5.73615H119.432V15.918H117.285V11.712H112.915V15.918H110.762ZM123.36 5.73615V15.918H121.207V5.73615H123.36ZM125.131 15.918V5.73615H127.284V14.1431H131.649V15.918H125.131ZM135.227 5.73615V15.918H133.074V5.73615H135.227ZM136.998 15.918V5.73615H141.015C141.788 5.73615 142.445 5.88364 142.989 6.17862C143.533 6.47029 143.947 6.8763 144.232 7.39666C144.52 7.91371 144.664 8.5103 144.664 9.18643C144.664 9.86257 144.519 10.4592 144.227 10.9762C143.935 11.4933 143.513 11.896 142.959 12.1843C142.409 12.4727 141.743 12.6168 140.961 12.6168H138.4V10.8917H140.613C141.027 10.8917 141.368 10.8204 141.637 10.6779C141.908 10.5321 142.111 10.3316 142.243 10.0763C142.379 9.81783 142.447 9.52119 142.447 9.18643C142.447 8.84837 142.379 8.55338 142.243 8.30149C142.111 8.04628 141.908 7.84908 141.637 7.70987C141.365 7.56735 141.02 7.49609 140.603 7.49609H139.151V15.918H136.998ZM151.586 8.66442C151.546 8.26338 151.376 7.95182 151.074 7.72976C150.772 7.50769 150.363 7.39666 149.846 7.39666C149.495 7.39666 149.198 7.44638 148.956 7.54581C148.714 7.64193 148.529 7.77616 148.399 7.94851C148.273 8.12086 148.21 8.31641 148.21 8.53516C148.204 8.71745 148.242 8.87654 148.325 9.01243C148.411 9.14832 148.529 9.26598 148.678 9.36541C148.827 9.46153 148.999 9.54605 149.195 9.61896C149.39 9.68857 149.599 9.74822 149.821 9.79794L150.736 10.0167C151.18 10.1161 151.588 10.2487 151.959 10.4144C152.33 10.5801 152.652 10.784 152.923 11.0259C153.195 11.2679 153.406 11.5529 153.555 11.881C153.707 12.2092 153.785 12.5853 153.789 13.0096C153.785 13.6327 153.626 14.1729 153.311 14.6303C153 15.0844 152.549 15.4374 151.959 15.6893C151.372 15.9379 150.665 16.0621 149.836 16.0621C149.014 16.0621 148.298 15.9362 147.688 15.6843C147.082 15.4324 146.608 15.0595 146.267 14.5657C145.928 14.0685 145.751 13.4537 145.735 12.7212H147.818C147.841 13.0626 147.939 13.3477 148.111 13.5763C148.287 13.8017 148.52 13.9724 148.812 14.0884C149.107 14.2011 149.44 14.2575 149.811 14.2575C150.176 14.2575 150.492 14.2044 150.761 14.0984C151.033 13.9923 151.243 13.8448 151.392 13.6559C151.541 13.467 151.616 13.2499 151.616 13.0046C151.616 12.7759 151.548 12.5837 151.412 12.4279C151.28 12.2721 151.084 12.1396 150.825 12.0302C150.57 11.9208 150.257 11.8214 149.886 11.7319L148.777 11.4535C147.919 11.2447 147.241 10.9182 146.744 10.4741C146.247 10.0299 146 9.4317 146.003 8.67933C146 8.06285 146.164 7.52427 146.495 7.06357C146.83 6.60286 147.289 6.24325 147.872 5.98473C148.456 5.72621 149.119 5.59695 149.861 5.59695C150.617 5.59695 151.276 5.72621 151.84 5.98473C152.406 6.24325 152.847 6.60286 153.162 7.06357C153.477 7.52427 153.639 8.05788 153.649 8.66442H151.586ZM10.7447 33.0671C9.97242 33.0671 9.30457 32.9031 8.74112 32.5749C8.18099 32.2435 7.74846 31.7828 7.44354 31.1928C7.13861 30.5996 6.98615 29.9118 6.98615 29.1296C6.98615 28.3408 7.13861 27.6514 7.44354 27.0614C7.74846 26.4682 8.18099 26.0075 8.74112 25.6793C9.30457 25.3479 9.97242 25.1822 10.7447 25.1822C11.5169 25.1822 12.1831 25.3479 12.7433 25.6793C13.3067 26.0075 13.7409 26.4682 14.0458 27.0614C14.3507 27.6514 14.5032 28.3408 14.5032 29.1296C14.5032 29.9118 14.3507 30.5996 14.0458 31.1928C13.7409 31.7828 13.3067 32.2435 12.7433 32.5749C12.1831 32.9031 11.5169 33.0671 10.7447 33.0671ZM10.7546 31.4265C11.1059 31.4265 11.3993 31.3271 11.6346 31.1282C11.8699 30.926 12.0472 30.6509 12.1665 30.3029C12.2892 29.9549 12.3505 29.5588 12.3505 29.1147C12.3505 28.6706 12.2892 28.2745 12.1665 27.9265C12.0472 27.5785 11.8699 27.3034 11.6346 27.1012C11.3993 26.899 11.1059 26.7979 10.7546 26.7979C10.4 26.7979 10.1017 26.899 9.85973 27.1012C9.62109 27.3034 9.44046 27.5785 9.31783 27.9265C9.19851 28.2745 9.13885 28.6706 9.13885 29.1147C9.13885 29.5588 9.19851 29.9549 9.31783 30.3029C9.44046 30.6509 9.62109 30.926 9.85973 31.1282C10.1017 31.3271 10.4 31.4265 10.7546 31.4265ZM15.1408 26.9471V25.2816H22.0613V26.9471H19.6003V32.918H17.5819V26.9471H15.1408ZM25.9888 35.1552V31.2376H26.5755C26.7445 31.1315 26.8804 30.9625 26.9831 30.7305C27.0892 30.4985 27.1754 30.225 27.2417 29.9102C27.3113 29.5953 27.3643 29.2556 27.4007 28.891C27.4405 28.5231 27.4753 28.1519 27.5051 27.7773L27.704 25.2816H33.5605V31.2376H34.7438V35.1552H32.7253V32.918H28.057V35.1552H25.9888ZM28.6834 31.2376H31.562V26.9123H29.5037L29.4242 27.7773C29.3678 28.5927 29.2866 29.2854 29.1806 29.8555C29.0745 30.4222 28.9088 30.8829 28.6834 31.2376ZM38.0014 30.1239L40.7507 25.2816H42.8388V32.918H40.8203V28.0607L38.081 32.918H35.978V25.2816H38.0014V30.1239ZM44.0891 32.918L44.0792 31.2376H44.3327C44.5117 31.2376 44.6658 31.1945 44.7951 31.1083C44.9277 31.0188 45.0371 30.8746 45.1232 30.6758C45.2094 30.4769 45.2773 30.2134 45.3271 29.8853C45.3768 29.5539 45.4099 29.1462 45.4265 28.6623L45.5508 25.2816H51.3576V32.918H49.3391V26.9471H47.4549L47.3356 29.2788C47.3058 29.9184 47.2279 30.4686 47.1019 30.9293C46.9793 31.39 46.8086 31.7679 46.5898 32.0629C46.3711 32.3545 46.1076 32.57 45.7994 32.7092C45.4911 32.8484 45.1332 32.918 44.7255 32.918H44.0891ZM56.4796 33.0671C55.6941 33.0671 55.0179 32.908 54.4512 32.5898C53.8877 32.2683 53.4535 31.8143 53.1486 31.2276C52.8437 30.6377 52.6912 29.94 52.6912 29.1346C52.6912 28.3491 52.8437 27.6597 53.1486 27.0664C53.4535 26.4731 53.8828 26.0108 54.4363 25.6793C54.9931 25.3479 55.646 25.1822 56.3951 25.1822C56.8989 25.1822 57.3678 25.2634 57.802 25.4258C58.2395 25.5849 58.6207 25.8252 58.9455 26.1467C59.2736 26.4682 59.5288 26.8725 59.7111 27.3597C59.8934 27.8436 59.9846 28.4104 59.9846 29.06V29.6417H53.5364V28.3292H57.9909C57.9909 28.0243 57.9247 27.7541 57.7921 27.5188C57.6595 27.2835 57.4756 27.0995 57.2402 26.967C57.0082 26.8311 56.7381 26.7631 56.4299 26.7631C56.1084 26.7631 55.8233 26.8377 55.5748 26.9869C55.3295 27.1327 55.1373 27.3299 54.998 27.5785C54.8588 27.8237 54.7876 28.0972 54.7843 28.3988V29.6467C54.7843 30.0245 54.8539 30.351 54.9931 30.6261C55.1356 30.9012 55.3361 31.1133 55.5946 31.2624C55.8532 31.4116 56.1597 31.4862 56.5144 31.4862C56.7497 31.4862 56.9651 31.453 57.1607 31.3867C57.3562 31.3204 57.5236 31.221 57.6628 31.0884C57.802 30.9558 57.9081 30.7934 57.981 30.6012L59.9398 30.7305C59.8404 31.2011 59.6365 31.6121 59.3283 31.9634C59.0234 32.3114 58.629 32.5832 58.1451 32.7788C57.6645 32.971 57.1093 33.0671 56.4796 33.0671ZM61.3667 35.7816V25.2816H63.4547V26.5643H63.5492C63.642 26.3588 63.7762 26.15 63.9519 25.9379C64.1309 25.7224 64.3629 25.5434 64.6479 25.4009C64.9363 25.2551 65.2942 25.1822 65.7218 25.1822C66.2786 25.1822 66.7923 25.328 67.263 25.6197C67.7336 25.908 68.1098 26.3439 68.3915 26.9272C68.6732 27.5072 68.8141 28.2347 68.8141 29.1097C68.8141 29.9615 68.6766 30.6808 68.4015 31.2674C68.1297 31.8507 67.7585 32.2932 67.2878 32.5948C66.8205 32.8931 66.2968 33.0423 65.7168 33.0423C65.3058 33.0423 64.9561 32.9743 64.6678 32.8384C64.3828 32.7025 64.1491 32.5318 63.9668 32.3263C63.7845 32.1175 63.6453 31.9071 63.5492 31.695H63.4846V35.7816H61.3667ZM63.4398 29.0998C63.4398 29.5539 63.5028 29.9499 63.6287 30.288C63.7547 30.6261 63.937 30.8896 64.1756 31.0785C64.4142 31.2641 64.7042 31.3569 65.0456 31.3569C65.3903 31.3569 65.682 31.2624 65.9206 31.0735C66.1593 30.8813 66.3399 30.6161 66.4625 30.2781C66.5885 29.9367 66.6515 29.5439 66.6515 29.0998C66.6515 28.659 66.5901 28.2712 66.4675 27.9364C66.3449 27.6017 66.1642 27.3398 65.9256 27.1509C65.687 26.962 65.3936 26.8675 65.0456 26.8675C64.7009 26.8675 64.4093 26.9587 64.1706 27.141C63.9353 27.3233 63.7547 27.5818 63.6287 27.9165C63.5028 28.2513 63.4398 28.6457 63.4398 29.0998ZM72.4036 33.0621C71.9164 33.0621 71.4822 32.9776 71.101 32.8086C70.7199 32.6362 70.4183 32.3827 70.1962 32.0479C69.9775 31.7099 69.8681 31.2889 69.8681 30.7852C69.8681 30.3609 69.946 30.0046 70.1017 29.7163C70.2575 29.4279 70.4696 29.1959 70.7381 29.0202C71.0066 28.8446 71.3115 28.712 71.6529 28.6225C71.9976 28.533 72.3588 28.4701 72.7367 28.4336C73.1808 28.3872 73.5388 28.3441 73.8105 28.3043C74.0823 28.2612 74.2795 28.1983 74.4022 28.1154C74.5248 28.0326 74.5861 27.9099 74.5861 27.7475V27.7177C74.5861 27.4028 74.4867 27.1592 74.2878 26.9869C74.0923 26.8145 73.8139 26.7283 73.4526 26.7283C73.0714 26.7283 72.7682 26.8129 72.5428 26.9819C72.3174 27.1476 72.1683 27.3564 72.0953 27.6083L70.1365 27.4492C70.236 26.9852 70.4315 26.5842 70.7232 26.2461C71.0149 25.9047 71.391 25.6429 71.8517 25.4606C72.3158 25.275 72.8527 25.1822 73.4625 25.1822C73.8868 25.1822 74.2928 25.2319 74.6806 25.3313C75.0717 25.4308 75.418 25.5849 75.7196 25.7937C76.0246 26.0025 76.2649 26.271 76.4405 26.5991C76.6162 26.9239 76.704 27.3133 76.704 27.7674V32.918H74.6955V31.859H74.6358C74.5132 32.0977 74.3491 32.3081 74.1436 32.4904C73.9382 32.6694 73.6912 32.8103 73.4029 32.913C73.1145 33.0124 72.7814 33.0621 72.4036 33.0621ZM73.0101 31.6005C73.3217 31.6005 73.5968 31.5392 73.8354 31.4165C74.074 31.2906 74.2613 31.1216 74.3972 30.9094C74.5331 30.6973 74.601 30.457 74.601 30.1886V29.3782C74.5347 29.4213 74.4436 29.4611 74.3276 29.4975C74.2149 29.5307 74.0873 29.5621 73.9448 29.592C73.8023 29.6185 73.6597 29.6433 73.5172 29.6665C73.3747 29.6864 73.2454 29.7047 73.1294 29.7212C72.8809 29.7577 72.6638 29.8157 72.4782 29.8952C72.2926 29.9748 72.1484 30.0825 72.0456 30.2184C71.9429 30.351 71.8915 30.5167 71.8915 30.7156C71.8915 31.0039 71.9959 31.2243 72.2047 31.3768C72.4168 31.5259 72.6853 31.6005 73.0101 31.6005Z" fill="#0074E0"/>
</g>
</g>
<defs>
<filter id="filter0_i_413_11" x="0" y="0" width="168" height="44" filterUnits="userSpaceOnUse" color-interpolation-filters="sRGB">
<feFlood flood-opacity="0" result="BackgroundImageFix"/>
<feBlend mode="normal" in="SourceGraphic" in2="BackgroundImageFix" result="shape"/>
<feColorMatrix in="SourceAlpha" type="matrix" values="0 0 0 0 0 0 0 0 0 0 0 0 0 0 0 0 0 0 127 0" result="hardAlpha"/>
<feOffset dy="4"/>
<feGaussianBlur stdDeviation="2"/>
<feComposite in2="hardAlpha" operator="arithmetic" k2="-1" k3="1"/>
<feColorMatrix type="matrix" values="0 0 0 0 0 0 0 0 0 0 0 0 0 0 0 0 0 0 0.25 0"/>
<feBlend mode="normal" in2="shape" result="effect1_innerShadow_413_11"/>
</filter>
<filter id="filter1_i_413_11" x="6.98633" y="5.59668" width="146.803" height="34.1846" filterUnits="userSpaceOnUse" color-interpolation-filters="sRGB">
<feFlood flood-opacity="0" result="BackgroundImageFix"/>
<feBlend mode="normal" in="SourceGraphic" in2="BackgroundImageFix" result="shape"/>
<feColorMatrix in="SourceAlpha" type="matrix" values="0 0 0 0 0 0 0 0 0 0 0 0 0 0 0 0 0 0 127 0" result="hardAlpha"/>
<feOffset dy="4"/>
<feGaussianBlur stdDeviation="2"/>
<feComposite in2="hardAlpha" operator="arithmetic" k2="-1" k3="1"/>
<feColorMatrix type="matrix" values="0 0 0 0 0 0 0 0 0 0 0 0 0 0 0 0 0 0 0.25 0"/>
<feBlend mode="normal" in2="shape" result="effect1_innerShadow_413_11"/>
</filter>
</defs>
</svg>
